# xmcd
#
# Track frame offsets:
# 150
# 18222
# 34413
# 50606
# 66900
# 86083
# 97494
# 119050
# 133336
# 148128
# 160762
# 173317
# 186940
# 202139
#
# Disc length: 2879 seconds
#
#
# Revision: 2
# Processed by: cddbd v1.5.2PL0 Copyright (c) Steve Scherf et al.
# Submitted via: FreeRIP 2.944 
#
DISCID=d90b3d0e
DTITLE=Cesar Menotti and Fabiano - Me Apaixonei
DYEAR=1900
DGENRE=Sertanejo
TTITLE0=Não tem adeus quando se ama
TTITLE1=Me apaixonei (A primeira vez que eu te vi)
TTITLE2=A felicidade voa
TTITLE3=Fica comigo
TTITLE4=Frente a frente
TTITLE5=Sempre seu homem
TTITLE6=O amor maior
TTITLE7=Aqui não
TTITLE8=Paixão mineira
TTITLE9=Como reconquistar o seu amor
TTITLE10=Se esta moda pega
TTITLE11=Onde tem som de viola
TTITLE12=Rio Paranaíba
TTITLE13=Do que o boiadeiro gosta
EXTD=
EXTT0=
EXTT1=
EXTT2=
EXTT3=
EXTT4=
EXTT5=
EXTT6=
EXTT7=
EXTT8=
EXTT9=
EXTT10=
EXTT11=
EXTT12=
EXTT13=
PLAYORDER=
